M48
;DRILL file {KiCad (5.0.0-3-g5ebb6b6)} date 
;FORMAT={3:3/ absolute / metric / keep zeros}
FMAT,2
METRIC,TZ
T1C1.000
%
G90
G05
M71
T1
X112500Y-051250
X112500Y-056330
X112500Y-061410
X112500Y-066490
X106500Y-051250
X106500Y-056330
X106500Y-061410
X106500Y-066490
X117500Y-054000
X117500Y-056540
X117500Y-059080
X117500Y-061620
X117500Y-064160
X117500Y-066700
X117500Y-069240
X117500Y-071780
X086250Y-056970
X086250Y-059510
X086250Y-062050
X086250Y-064590
X086250Y-067130
X086250Y-069670
X086250Y-072210
X086250Y-074750
T0
M30
