G04 #@! TF.GenerationSoftware,KiCad,Pcbnew,(5.0.0-3-g5ebb6b6)*
G04 #@! TF.CreationDate,2019-04-02T16:58:23+03:00*
G04 #@! TF.ProjectId,uae,7561652E6B696361645F706362000000,rev?*
G04 #@! TF.SameCoordinates,Original*
G04 #@! TF.FileFunction,Soldermask,Bot*
G04 #@! TF.FilePolarity,Negative*
%FSLAX46Y46*%
G04 Gerber Fmt 4.6, Leading zero omitted, Abs format (unit mm)*
G04 Created by KiCad (PCBNEW (5.0.0-3-g5ebb6b6)) date *
%MOMM*%
%LPD*%
G01*
G04 APERTURE LIST*
%ADD10C,0.100000*%
G04 APERTURE END LIST*
D10*
G36*
X86512520Y-73884586D02*
X86512522Y-73884587D01*
X86512523Y-73884587D01*
X86676310Y-73952430D01*
X86823717Y-74050924D01*
X86949076Y-74176283D01*
X87047570Y-74323690D01*
X87115414Y-74487480D01*
X87150000Y-74661358D01*
X87150000Y-74838642D01*
X87115414Y-75012520D01*
X87047570Y-75176310D01*
X86949076Y-75323717D01*
X86823717Y-75449076D01*
X86676310Y-75547570D01*
X86512523Y-75615413D01*
X86512522Y-75615413D01*
X86512520Y-75615414D01*
X86338642Y-75650000D01*
X86161358Y-75650000D01*
X85987480Y-75615414D01*
X85987478Y-75615413D01*
X85987477Y-75615413D01*
X85823690Y-75547570D01*
X85676283Y-75449076D01*
X85550924Y-75323717D01*
X85452430Y-75176310D01*
X85384586Y-75012520D01*
X85350000Y-74838642D01*
X85350000Y-74661358D01*
X85384586Y-74487480D01*
X85452430Y-74323690D01*
X85550924Y-74176283D01*
X85676283Y-74050924D01*
X85823690Y-73952430D01*
X85987477Y-73884587D01*
X85987478Y-73884587D01*
X85987480Y-73884586D01*
X86161358Y-73850000D01*
X86338642Y-73850000D01*
X86512520Y-73884586D01*
X86512520Y-73884586D01*
G37*
G36*
X87150000Y-73110000D02*
X85350000Y-73110000D01*
X85350000Y-71310000D01*
X87150000Y-71310000D01*
X87150000Y-73110000D01*
X87150000Y-73110000D01*
G37*
G36*
X118400000Y-72680000D02*
X116600000Y-72680000D01*
X116600000Y-70880000D01*
X118400000Y-70880000D01*
X118400000Y-72680000D01*
X118400000Y-72680000D01*
G37*
G36*
X87150000Y-70570000D02*
X85350000Y-70570000D01*
X85350000Y-68770000D01*
X87150000Y-68770000D01*
X87150000Y-70570000D01*
X87150000Y-70570000D01*
G37*
G36*
X118400000Y-70140000D02*
X116600000Y-70140000D01*
X116600000Y-68340000D01*
X118400000Y-68340000D01*
X118400000Y-70140000D01*
X118400000Y-70140000D01*
G37*
G36*
X87150000Y-68030000D02*
X85350000Y-68030000D01*
X85350000Y-66230000D01*
X87150000Y-66230000D01*
X87150000Y-68030000D01*
X87150000Y-68030000D01*
G37*
G36*
X118400000Y-67600000D02*
X116600000Y-67600000D01*
X116600000Y-65800000D01*
X118400000Y-65800000D01*
X118400000Y-67600000D01*
X118400000Y-67600000D01*
G37*
G36*
X106762520Y-65624586D02*
X106762522Y-65624587D01*
X106762523Y-65624587D01*
X106926310Y-65692430D01*
X107073717Y-65790924D01*
X107199076Y-65916283D01*
X107297570Y-66063690D01*
X107365414Y-66227480D01*
X107400000Y-66401358D01*
X107400000Y-66578642D01*
X107365414Y-66752520D01*
X107297570Y-66916310D01*
X107199076Y-67063717D01*
X107073717Y-67189076D01*
X106926310Y-67287570D01*
X106762523Y-67355413D01*
X106762522Y-67355413D01*
X106762520Y-67355414D01*
X106588642Y-67390000D01*
X106411358Y-67390000D01*
X106237480Y-67355414D01*
X106237478Y-67355413D01*
X106237477Y-67355413D01*
X106073690Y-67287570D01*
X105926283Y-67189076D01*
X105800924Y-67063717D01*
X105702430Y-66916310D01*
X105634586Y-66752520D01*
X105600000Y-66578642D01*
X105600000Y-66401358D01*
X105634586Y-66227480D01*
X105702430Y-66063690D01*
X105800924Y-65916283D01*
X105926283Y-65790924D01*
X106073690Y-65692430D01*
X106237477Y-65624587D01*
X106237478Y-65624587D01*
X106237480Y-65624586D01*
X106411358Y-65590000D01*
X106588642Y-65590000D01*
X106762520Y-65624586D01*
X106762520Y-65624586D01*
G37*
G36*
X112762520Y-65624586D02*
X112762522Y-65624587D01*
X112762523Y-65624587D01*
X112926310Y-65692430D01*
X113073717Y-65790924D01*
X113199076Y-65916283D01*
X113297570Y-66063690D01*
X113365414Y-66227480D01*
X113400000Y-66401358D01*
X113400000Y-66578642D01*
X113365414Y-66752520D01*
X113297570Y-66916310D01*
X113199076Y-67063717D01*
X113073717Y-67189076D01*
X112926310Y-67287570D01*
X112762523Y-67355413D01*
X112762522Y-67355413D01*
X112762520Y-67355414D01*
X112588642Y-67390000D01*
X112411358Y-67390000D01*
X112237480Y-67355414D01*
X112237478Y-67355413D01*
X112237477Y-67355413D01*
X112073690Y-67287570D01*
X111926283Y-67189076D01*
X111800924Y-67063717D01*
X111702430Y-66916310D01*
X111634586Y-66752520D01*
X111600000Y-66578642D01*
X111600000Y-66401358D01*
X111634586Y-66227480D01*
X111702430Y-66063690D01*
X111800924Y-65916283D01*
X111926283Y-65790924D01*
X112073690Y-65692430D01*
X112237477Y-65624587D01*
X112237478Y-65624587D01*
X112237480Y-65624586D01*
X112411358Y-65590000D01*
X112588642Y-65590000D01*
X112762520Y-65624586D01*
X112762520Y-65624586D01*
G37*
G36*
X87150000Y-65490000D02*
X85350000Y-65490000D01*
X85350000Y-63690000D01*
X87150000Y-63690000D01*
X87150000Y-65490000D01*
X87150000Y-65490000D01*
G37*
G36*
X118400000Y-65060000D02*
X116600000Y-65060000D01*
X116600000Y-63260000D01*
X118400000Y-63260000D01*
X118400000Y-65060000D01*
X118400000Y-65060000D01*
G37*
G36*
X87150000Y-62950000D02*
X85350000Y-62950000D01*
X85350000Y-61150000D01*
X87150000Y-61150000D01*
X87150000Y-62950000D01*
X87150000Y-62950000D01*
G37*
G36*
X118400000Y-62520000D02*
X116600000Y-62520000D01*
X116600000Y-60720000D01*
X118400000Y-60720000D01*
X118400000Y-62520000D01*
X118400000Y-62520000D01*
G37*
G36*
X107400000Y-62310000D02*
X105600000Y-62310000D01*
X105600000Y-60510000D01*
X107400000Y-60510000D01*
X107400000Y-62310000D01*
X107400000Y-62310000D01*
G37*
G36*
X113400000Y-62310000D02*
X111600000Y-62310000D01*
X111600000Y-60510000D01*
X113400000Y-60510000D01*
X113400000Y-62310000D01*
X113400000Y-62310000D01*
G37*
G36*
X87150000Y-60410000D02*
X85350000Y-60410000D01*
X85350000Y-58610000D01*
X87150000Y-58610000D01*
X87150000Y-60410000D01*
X87150000Y-60410000D01*
G37*
G36*
X118400000Y-59980000D02*
X116600000Y-59980000D01*
X116600000Y-58180000D01*
X118400000Y-58180000D01*
X118400000Y-59980000D01*
X118400000Y-59980000D01*
G37*
G36*
X87150000Y-57870000D02*
X85350000Y-57870000D01*
X85350000Y-56070000D01*
X87150000Y-56070000D01*
X87150000Y-57870000D01*
X87150000Y-57870000D01*
G37*
G36*
X118400000Y-57440000D02*
X116600000Y-57440000D01*
X116600000Y-55640000D01*
X118400000Y-55640000D01*
X118400000Y-57440000D01*
X118400000Y-57440000D01*
G37*
G36*
X113400000Y-57230000D02*
X111600000Y-57230000D01*
X111600000Y-55430000D01*
X113400000Y-55430000D01*
X113400000Y-57230000D01*
X113400000Y-57230000D01*
G37*
G36*
X107400000Y-57230000D02*
X105600000Y-57230000D01*
X105600000Y-55430000D01*
X107400000Y-55430000D01*
X107400000Y-57230000D01*
X107400000Y-57230000D01*
G37*
G36*
X117762520Y-53134586D02*
X117762522Y-53134587D01*
X117762523Y-53134587D01*
X117926310Y-53202430D01*
X118073717Y-53300924D01*
X118199076Y-53426283D01*
X118297570Y-53573690D01*
X118365414Y-53737480D01*
X118400000Y-53911358D01*
X118400000Y-54088642D01*
X118365414Y-54262520D01*
X118297570Y-54426310D01*
X118199076Y-54573717D01*
X118073717Y-54699076D01*
X117926310Y-54797570D01*
X117762523Y-54865413D01*
X117762522Y-54865413D01*
X117762520Y-54865414D01*
X117588642Y-54900000D01*
X117411358Y-54900000D01*
X117237480Y-54865414D01*
X117237478Y-54865413D01*
X117237477Y-54865413D01*
X117073690Y-54797570D01*
X116926283Y-54699076D01*
X116800924Y-54573717D01*
X116702430Y-54426310D01*
X116634586Y-54262520D01*
X116600000Y-54088642D01*
X116600000Y-53911358D01*
X116634586Y-53737480D01*
X116702430Y-53573690D01*
X116800924Y-53426283D01*
X116926283Y-53300924D01*
X117073690Y-53202430D01*
X117237477Y-53134587D01*
X117237478Y-53134587D01*
X117237480Y-53134586D01*
X117411358Y-53100000D01*
X117588642Y-53100000D01*
X117762520Y-53134586D01*
X117762520Y-53134586D01*
G37*
G36*
X113400000Y-52150000D02*
X111600000Y-52150000D01*
X111600000Y-50350000D01*
X113400000Y-50350000D01*
X113400000Y-52150000D01*
X113400000Y-52150000D01*
G37*
G36*
X107400000Y-52150000D02*
X105600000Y-52150000D01*
X105600000Y-50350000D01*
X107400000Y-50350000D01*
X107400000Y-52150000D01*
X107400000Y-52150000D01*
G37*
M02*
