G04 #@! TF.GenerationSoftware,KiCad,Pcbnew,(5.0.0-3-g5ebb6b6)*
G04 #@! TF.CreationDate,2019-04-02T16:58:23+03:00*
G04 #@! TF.ProjectId,uae,7561652E6B696361645F706362000000,rev?*
G04 #@! TF.SameCoordinates,Original*
G04 #@! TF.FileFunction,Legend,Bot*
G04 #@! TF.FilePolarity,Positive*
%FSLAX46Y46*%
G04 Gerber Fmt 4.6, Leading zero omitted, Abs format (unit mm)*
G04 Created by KiCad (PCBNEW (5.0.0-3-g5ebb6b6)) date *
%MOMM*%
%LPD*%
G01*
G04 APERTURE LIST*
%ADD10C,0.300000*%
%ADD11C,0.200000*%
G04 APERTURE END LIST*
D10*
G04 #@! TO.C,XP2*
X116250000Y-52750000D02*
X116250000Y-53500000D01*
X116250000Y-52750000D02*
X117000000Y-52750000D01*
X118000000Y-52750000D02*
X118750000Y-52750000D01*
X118750000Y-52750000D02*
X118750000Y-53500000D01*
X116250000Y-72350000D02*
X116250000Y-73100000D01*
X118750000Y-73100000D02*
X118750000Y-72350000D01*
X116250000Y-73100000D02*
X117000000Y-73100000D01*
X118000000Y-73100000D02*
X118750000Y-73100000D01*
G04 #@! TO.C,XP1*
X87500000Y-76000000D02*
X87500000Y-75250000D01*
X87500000Y-76000000D02*
X86750000Y-76000000D01*
X85750000Y-76000000D02*
X85000000Y-76000000D01*
X85000000Y-76000000D02*
X85000000Y-75250000D01*
X87500000Y-56400000D02*
X87500000Y-55650000D01*
X85000000Y-55650000D02*
X85000000Y-56400000D01*
X87500000Y-55650000D02*
X86750000Y-55650000D01*
X85750000Y-55650000D02*
X85000000Y-55650000D01*
G04 #@! TO.C,XP2*
D11*
X118809523Y-51202380D02*
X118142857Y-52202380D01*
X118142857Y-51202380D02*
X118809523Y-52202380D01*
X117761904Y-52202380D02*
X117761904Y-51202380D01*
X117380952Y-51202380D01*
X117285714Y-51250000D01*
X117238095Y-51297619D01*
X117190476Y-51392857D01*
X117190476Y-51535714D01*
X117238095Y-51630952D01*
X117285714Y-51678571D01*
X117380952Y-51726190D01*
X117761904Y-51726190D01*
X116809523Y-51297619D02*
X116761904Y-51250000D01*
X116666666Y-51202380D01*
X116428571Y-51202380D01*
X116333333Y-51250000D01*
X116285714Y-51297619D01*
X116238095Y-51392857D01*
X116238095Y-51488095D01*
X116285714Y-51630952D01*
X116857142Y-52202380D01*
X116238095Y-52202380D01*
G04 #@! TO.C,XP1*
X87559523Y-54202380D02*
X86892857Y-55202380D01*
X86892857Y-54202380D02*
X87559523Y-55202380D01*
X86511904Y-55202380D02*
X86511904Y-54202380D01*
X86130952Y-54202380D01*
X86035714Y-54250000D01*
X85988095Y-54297619D01*
X85940476Y-54392857D01*
X85940476Y-54535714D01*
X85988095Y-54630952D01*
X86035714Y-54678571D01*
X86130952Y-54726190D01*
X86511904Y-54726190D01*
X84988095Y-55202380D02*
X85559523Y-55202380D01*
X85273809Y-55202380D02*
X85273809Y-54202380D01*
X85369047Y-54345238D01*
X85464285Y-54440476D01*
X85559523Y-54488095D01*
G04 #@! TD*
M02*
