G04 #@! TF.GenerationSoftware,KiCad,Pcbnew,(5.0.0-3-g5ebb6b6)*
G04 #@! TF.CreationDate,2019-04-02T16:58:23+03:00*
G04 #@! TF.ProjectId,uae,7561652E6B696361645F706362000000,rev?*
G04 #@! TF.SameCoordinates,Original*
G04 #@! TF.FileFunction,Legend,Top*
G04 #@! TF.FilePolarity,Positive*
%FSLAX46Y46*%
G04 Gerber Fmt 4.6, Leading zero omitted, Abs format (unit mm)*
G04 Created by KiCad (PCBNEW (5.0.0-3-g5ebb6b6)) date *
%MOMM*%
%LPD*%
G01*
G04 APERTURE LIST*
%ADD10C,0.250000*%
%ADD11C,0.200000*%
G04 APERTURE END LIST*
D10*
G04 #@! TO.C,DA1*
X101644000Y-49905000D02*
X101644000Y-49705000D01*
X101644000Y-49705000D02*
X100644000Y-49705000D01*
X96694000Y-49905000D02*
X96694000Y-49705000D01*
X96694000Y-49705000D02*
X97694000Y-49705000D01*
X94744000Y-50505000D02*
X94244000Y-50105000D01*
X94744000Y-50505000D02*
X94244000Y-50905000D01*
X94244000Y-50905000D02*
X94244000Y-50105000D01*
X101644000Y-53855000D02*
X100644000Y-53855000D01*
X101644000Y-53655000D02*
X101644000Y-53855000D01*
X96694000Y-53655000D02*
X96694000Y-53855000D01*
X96694000Y-53855000D02*
X97694000Y-53855000D01*
G04 #@! TO.C,DA2*
X96650000Y-66200000D02*
X97650000Y-66200000D01*
X96650000Y-66000000D02*
X96650000Y-66200000D01*
X101600000Y-66000000D02*
X101600000Y-66200000D01*
X101600000Y-66200000D02*
X100600000Y-66200000D01*
X94200000Y-63250000D02*
X94200000Y-62450000D01*
X94700000Y-62850000D02*
X94200000Y-63250000D01*
X94700000Y-62850000D02*
X94200000Y-62450000D01*
X96650000Y-62050000D02*
X97650000Y-62050000D01*
X96650000Y-62250000D02*
X96650000Y-62050000D01*
X101600000Y-62050000D02*
X100600000Y-62050000D01*
X101600000Y-62250000D02*
X101600000Y-62050000D01*
G04 #@! TO.C,DA3*
X103150000Y-75000000D02*
X103150000Y-75200000D01*
X103150000Y-75200000D02*
X104150000Y-75200000D01*
X108100000Y-75000000D02*
X108100000Y-75200000D01*
X108100000Y-75200000D02*
X107100000Y-75200000D01*
X110050000Y-74400000D02*
X110550000Y-74800000D01*
X110050000Y-74400000D02*
X110550000Y-74000000D01*
X110550000Y-74000000D02*
X110550000Y-74800000D01*
X103150000Y-71050000D02*
X104150000Y-71050000D01*
X103150000Y-71250000D02*
X103150000Y-71050000D01*
X108100000Y-71250000D02*
X108100000Y-71050000D01*
X108100000Y-71050000D02*
X107100000Y-71050000D01*
G04 #@! TO.C,DA4*
X104000000Y-68990000D02*
X104000000Y-67990000D01*
X104000000Y-68990000D02*
X105000000Y-68990000D01*
X109000000Y-68990000D02*
X109000000Y-67990000D01*
X109000000Y-68990000D02*
X108000000Y-68990000D01*
X104000000Y-49740000D02*
X104000000Y-50740000D01*
X104000000Y-49740000D02*
X105000000Y-49740000D01*
X109000000Y-49740000D02*
X108000000Y-49740000D01*
X109000000Y-49740000D02*
X109000000Y-50740000D01*
G04 #@! TO.C,DA5*
X115000000Y-49740000D02*
X115000000Y-50740000D01*
X115000000Y-49740000D02*
X114000000Y-49740000D01*
X110000000Y-49740000D02*
X111000000Y-49740000D01*
X110000000Y-49740000D02*
X110000000Y-50740000D01*
X115000000Y-68990000D02*
X114000000Y-68990000D01*
X115000000Y-68990000D02*
X115000000Y-67990000D01*
X110000000Y-68990000D02*
X111000000Y-68990000D01*
X110000000Y-68990000D02*
X110000000Y-67990000D01*
G04 #@! TO.C,R1*
X90350000Y-72900000D02*
X91350000Y-72900000D01*
X94150000Y-72900000D02*
X93150000Y-72900000D01*
X94150000Y-75100000D02*
X93150000Y-75100000D01*
X90350000Y-75100000D02*
X91350000Y-75100000D01*
X94150000Y-72900000D02*
X94150000Y-75100000D01*
X90350000Y-75100000D02*
X90350000Y-72900000D01*
X92100000Y-73550000D02*
X92400000Y-73800000D01*
X92100000Y-74200000D02*
X92400000Y-74450000D01*
G04 #@! TO.C,R2*
X92100000Y-71700000D02*
X92400000Y-71950000D01*
X92100000Y-71050000D02*
X92400000Y-71300000D01*
X90350000Y-72600000D02*
X90350000Y-70400000D01*
X94150000Y-70400000D02*
X94150000Y-72600000D01*
X90350000Y-72600000D02*
X91350000Y-72600000D01*
X94150000Y-72600000D02*
X93150000Y-72600000D01*
X94150000Y-70400000D02*
X93150000Y-70400000D01*
X90350000Y-70400000D02*
X91350000Y-70400000D01*
G04 #@! TO.C,R3*
X89850000Y-49400000D02*
X90850000Y-49400000D01*
X93650000Y-49400000D02*
X92650000Y-49400000D01*
X93650000Y-51600000D02*
X92650000Y-51600000D01*
X89850000Y-51600000D02*
X90850000Y-51600000D01*
X93650000Y-49400000D02*
X93650000Y-51600000D01*
X89850000Y-51600000D02*
X89850000Y-49400000D01*
X91600000Y-50050000D02*
X91900000Y-50300000D01*
X91600000Y-50700000D02*
X91900000Y-50950000D01*
G04 #@! TO.C,R4*
X91600000Y-53200000D02*
X91900000Y-53450000D01*
X91600000Y-52550000D02*
X91900000Y-52800000D01*
X89850000Y-54100000D02*
X89850000Y-51900000D01*
X93650000Y-51900000D02*
X93650000Y-54100000D01*
X89850000Y-54100000D02*
X90850000Y-54100000D01*
X93650000Y-54100000D02*
X92650000Y-54100000D01*
X93650000Y-51900000D02*
X92650000Y-51900000D01*
X89850000Y-51900000D02*
X90850000Y-51900000D01*
G04 #@! TO.C,R5*
X89850000Y-58400000D02*
X90850000Y-58400000D01*
X93650000Y-58400000D02*
X92650000Y-58400000D01*
X93650000Y-60600000D02*
X92650000Y-60600000D01*
X89850000Y-60600000D02*
X90850000Y-60600000D01*
X93650000Y-58400000D02*
X93650000Y-60600000D01*
X89850000Y-60600000D02*
X89850000Y-58400000D01*
X91600000Y-59050000D02*
X91900000Y-59300000D01*
X91600000Y-59700000D02*
X91900000Y-59950000D01*
G04 #@! TO.C,R6*
X91600000Y-62200000D02*
X91900000Y-62450000D01*
X91600000Y-61550000D02*
X91900000Y-61800000D01*
X89850000Y-63100000D02*
X89850000Y-60900000D01*
X93650000Y-60900000D02*
X93650000Y-63100000D01*
X89850000Y-63100000D02*
X90850000Y-63100000D01*
X93650000Y-63100000D02*
X92650000Y-63100000D01*
X93650000Y-60900000D02*
X92650000Y-60900000D01*
X89850000Y-60900000D02*
X90850000Y-60900000D01*
G04 #@! TO.C,R7*
X98650000Y-73800000D02*
X98350000Y-73550000D01*
X98650000Y-74450000D02*
X98350000Y-74200000D01*
X100400000Y-72900000D02*
X100400000Y-75100000D01*
X96600000Y-75100000D02*
X96600000Y-72900000D01*
X100400000Y-72900000D02*
X99400000Y-72900000D01*
X96600000Y-72900000D02*
X97600000Y-72900000D01*
X96600000Y-75100000D02*
X97600000Y-75100000D01*
X100400000Y-75100000D02*
X99400000Y-75100000D01*
G04 #@! TO.C,R8*
X111350000Y-73150000D02*
X112350000Y-73150000D01*
X115150000Y-73150000D02*
X114150000Y-73150000D01*
X115150000Y-75350000D02*
X114150000Y-75350000D01*
X111350000Y-75350000D02*
X112350000Y-75350000D01*
X115150000Y-73150000D02*
X115150000Y-75350000D01*
X111350000Y-75350000D02*
X111350000Y-73150000D01*
X113100000Y-73800000D02*
X113400000Y-74050000D01*
X113100000Y-74450000D02*
X113400000Y-74700000D01*
G04 #@! TO.C,VD1*
X101750000Y-57250000D02*
X100250000Y-57250000D01*
X99750000Y-56750000D02*
X100250000Y-57250000D01*
X101750000Y-55250000D02*
X99750000Y-55250000D01*
G04 #@! TO.C,VD2*
X101750000Y-58750000D02*
X99750000Y-58750000D01*
X99750000Y-60250000D02*
X100250000Y-60750000D01*
X101750000Y-60750000D02*
X100250000Y-60750000D01*
G04 #@! TO.C,VT1*
X93010000Y-57830000D02*
X93010000Y-56900000D01*
X93010000Y-54670000D02*
X93010000Y-55600000D01*
X93010000Y-57830000D02*
X91550000Y-57830000D01*
X93010000Y-54670000D02*
X91550000Y-54670000D01*
G04 #@! TO.C,VT2*
X93010000Y-63670000D02*
X91550000Y-63670000D01*
X93010000Y-66830000D02*
X91550000Y-66830000D01*
X93010000Y-63670000D02*
X93010000Y-64600000D01*
X93010000Y-66830000D02*
X93010000Y-65900000D01*
G04 #@! TO.C,DA1*
D11*
X98083333Y-49452380D02*
X98083333Y-48452380D01*
X98321428Y-48452380D01*
X98464285Y-48500000D01*
X98559523Y-48595238D01*
X98607142Y-48690476D01*
X98654761Y-48880952D01*
X98654761Y-49023809D01*
X98607142Y-49214285D01*
X98559523Y-49309523D01*
X98464285Y-49404761D01*
X98321428Y-49452380D01*
X98083333Y-49452380D01*
X99035714Y-49166666D02*
X99511904Y-49166666D01*
X98940476Y-49452380D02*
X99273809Y-48452380D01*
X99607142Y-49452380D01*
X100464285Y-49452380D02*
X99892857Y-49452380D01*
X100178571Y-49452380D02*
X100178571Y-48452380D01*
X100083333Y-48595238D01*
X99988095Y-48690476D01*
X99892857Y-48738095D01*
G04 #@! TO.C,DA2*
X99333333Y-61452380D02*
X99333333Y-60452380D01*
X99571428Y-60452380D01*
X99714285Y-60500000D01*
X99809523Y-60595238D01*
X99857142Y-60690476D01*
X99904761Y-60880952D01*
X99904761Y-61023809D01*
X99857142Y-61214285D01*
X99809523Y-61309523D01*
X99714285Y-61404761D01*
X99571428Y-61452380D01*
X99333333Y-61452380D01*
X100285714Y-61166666D02*
X100761904Y-61166666D01*
X100190476Y-61452380D02*
X100523809Y-60452380D01*
X100857142Y-61452380D01*
X101142857Y-60547619D02*
X101190476Y-60500000D01*
X101285714Y-60452380D01*
X101523809Y-60452380D01*
X101619047Y-60500000D01*
X101666666Y-60547619D01*
X101714285Y-60642857D01*
X101714285Y-60738095D01*
X101666666Y-60880952D01*
X101095238Y-61452380D01*
X101714285Y-61452380D01*
G04 #@! TO.C,DA3*
X105333333Y-70702380D02*
X105333333Y-69702380D01*
X105571428Y-69702380D01*
X105714285Y-69750000D01*
X105809523Y-69845238D01*
X105857142Y-69940476D01*
X105904761Y-70130952D01*
X105904761Y-70273809D01*
X105857142Y-70464285D01*
X105809523Y-70559523D01*
X105714285Y-70654761D01*
X105571428Y-70702380D01*
X105333333Y-70702380D01*
X106285714Y-70416666D02*
X106761904Y-70416666D01*
X106190476Y-70702380D02*
X106523809Y-69702380D01*
X106857142Y-70702380D01*
X107095238Y-69702380D02*
X107714285Y-69702380D01*
X107380952Y-70083333D01*
X107523809Y-70083333D01*
X107619047Y-70130952D01*
X107666666Y-70178571D01*
X107714285Y-70273809D01*
X107714285Y-70511904D01*
X107666666Y-70607142D01*
X107619047Y-70654761D01*
X107523809Y-70702380D01*
X107238095Y-70702380D01*
X107142857Y-70654761D01*
X107095238Y-70607142D01*
G04 #@! TO.C,DA4*
X105333333Y-49452380D02*
X105333333Y-48452380D01*
X105571428Y-48452380D01*
X105714285Y-48500000D01*
X105809523Y-48595238D01*
X105857142Y-48690476D01*
X105904761Y-48880952D01*
X105904761Y-49023809D01*
X105857142Y-49214285D01*
X105809523Y-49309523D01*
X105714285Y-49404761D01*
X105571428Y-49452380D01*
X105333333Y-49452380D01*
X106285714Y-49166666D02*
X106761904Y-49166666D01*
X106190476Y-49452380D02*
X106523809Y-48452380D01*
X106857142Y-49452380D01*
X107619047Y-48785714D02*
X107619047Y-49452380D01*
X107380952Y-48404761D02*
X107142857Y-49119047D01*
X107761904Y-49119047D01*
G04 #@! TO.C,DA5*
X111333333Y-49452380D02*
X111333333Y-48452380D01*
X111571428Y-48452380D01*
X111714285Y-48500000D01*
X111809523Y-48595238D01*
X111857142Y-48690476D01*
X111904761Y-48880952D01*
X111904761Y-49023809D01*
X111857142Y-49214285D01*
X111809523Y-49309523D01*
X111714285Y-49404761D01*
X111571428Y-49452380D01*
X111333333Y-49452380D01*
X112285714Y-49166666D02*
X112761904Y-49166666D01*
X112190476Y-49452380D02*
X112523809Y-48452380D01*
X112857142Y-49452380D01*
X113666666Y-48452380D02*
X113190476Y-48452380D01*
X113142857Y-48928571D01*
X113190476Y-48880952D01*
X113285714Y-48833333D01*
X113523809Y-48833333D01*
X113619047Y-48880952D01*
X113666666Y-48928571D01*
X113714285Y-49023809D01*
X113714285Y-49261904D01*
X113666666Y-49357142D01*
X113619047Y-49404761D01*
X113523809Y-49452380D01*
X113285714Y-49452380D01*
X113190476Y-49404761D01*
X113142857Y-49357142D01*
G04 #@! TO.C,R1*
X89702380Y-74166666D02*
X89226190Y-74500000D01*
X89702380Y-74738095D02*
X88702380Y-74738095D01*
X88702380Y-74357142D01*
X88750000Y-74261904D01*
X88797619Y-74214285D01*
X88892857Y-74166666D01*
X89035714Y-74166666D01*
X89130952Y-74214285D01*
X89178571Y-74261904D01*
X89226190Y-74357142D01*
X89226190Y-74738095D01*
X89702380Y-73214285D02*
X89702380Y-73785714D01*
X89702380Y-73500000D02*
X88702380Y-73500000D01*
X88845238Y-73595238D01*
X88940476Y-73690476D01*
X88988095Y-73785714D01*
G04 #@! TO.C,R2*
X89702380Y-71416666D02*
X89226190Y-71750000D01*
X89702380Y-71988095D02*
X88702380Y-71988095D01*
X88702380Y-71607142D01*
X88750000Y-71511904D01*
X88797619Y-71464285D01*
X88892857Y-71416666D01*
X89035714Y-71416666D01*
X89130952Y-71464285D01*
X89178571Y-71511904D01*
X89226190Y-71607142D01*
X89226190Y-71988095D01*
X88797619Y-71035714D02*
X88750000Y-70988095D01*
X88702380Y-70892857D01*
X88702380Y-70654761D01*
X88750000Y-70559523D01*
X88797619Y-70511904D01*
X88892857Y-70464285D01*
X88988095Y-70464285D01*
X89130952Y-70511904D01*
X89702380Y-71083333D01*
X89702380Y-70464285D01*
G04 #@! TO.C,R3*
X89452380Y-50416666D02*
X88976190Y-50750000D01*
X89452380Y-50988095D02*
X88452380Y-50988095D01*
X88452380Y-50607142D01*
X88500000Y-50511904D01*
X88547619Y-50464285D01*
X88642857Y-50416666D01*
X88785714Y-50416666D01*
X88880952Y-50464285D01*
X88928571Y-50511904D01*
X88976190Y-50607142D01*
X88976190Y-50988095D01*
X88452380Y-50083333D02*
X88452380Y-49464285D01*
X88833333Y-49797619D01*
X88833333Y-49654761D01*
X88880952Y-49559523D01*
X88928571Y-49511904D01*
X89023809Y-49464285D01*
X89261904Y-49464285D01*
X89357142Y-49511904D01*
X89404761Y-49559523D01*
X89452380Y-49654761D01*
X89452380Y-49940476D01*
X89404761Y-50035714D01*
X89357142Y-50083333D01*
G04 #@! TO.C,R4*
X89452380Y-53166666D02*
X88976190Y-53500000D01*
X89452380Y-53738095D02*
X88452380Y-53738095D01*
X88452380Y-53357142D01*
X88500000Y-53261904D01*
X88547619Y-53214285D01*
X88642857Y-53166666D01*
X88785714Y-53166666D01*
X88880952Y-53214285D01*
X88928571Y-53261904D01*
X88976190Y-53357142D01*
X88976190Y-53738095D01*
X88785714Y-52309523D02*
X89452380Y-52309523D01*
X88404761Y-52547619D02*
X89119047Y-52785714D01*
X89119047Y-52166666D01*
G04 #@! TO.C,R5*
X89452380Y-59666666D02*
X88976190Y-60000000D01*
X89452380Y-60238095D02*
X88452380Y-60238095D01*
X88452380Y-59857142D01*
X88500000Y-59761904D01*
X88547619Y-59714285D01*
X88642857Y-59666666D01*
X88785714Y-59666666D01*
X88880952Y-59714285D01*
X88928571Y-59761904D01*
X88976190Y-59857142D01*
X88976190Y-60238095D01*
X88452380Y-58761904D02*
X88452380Y-59238095D01*
X88928571Y-59285714D01*
X88880952Y-59238095D01*
X88833333Y-59142857D01*
X88833333Y-58904761D01*
X88880952Y-58809523D01*
X88928571Y-58761904D01*
X89023809Y-58714285D01*
X89261904Y-58714285D01*
X89357142Y-58761904D01*
X89404761Y-58809523D01*
X89452380Y-58904761D01*
X89452380Y-59142857D01*
X89404761Y-59238095D01*
X89357142Y-59285714D01*
G04 #@! TO.C,R6*
X89452380Y-62166666D02*
X88976190Y-62500000D01*
X89452380Y-62738095D02*
X88452380Y-62738095D01*
X88452380Y-62357142D01*
X88500000Y-62261904D01*
X88547619Y-62214285D01*
X88642857Y-62166666D01*
X88785714Y-62166666D01*
X88880952Y-62214285D01*
X88928571Y-62261904D01*
X88976190Y-62357142D01*
X88976190Y-62738095D01*
X88452380Y-61309523D02*
X88452380Y-61500000D01*
X88500000Y-61595238D01*
X88547619Y-61642857D01*
X88690476Y-61738095D01*
X88880952Y-61785714D01*
X89261904Y-61785714D01*
X89357142Y-61738095D01*
X89404761Y-61690476D01*
X89452380Y-61595238D01*
X89452380Y-61404761D01*
X89404761Y-61309523D01*
X89357142Y-61261904D01*
X89261904Y-61214285D01*
X89023809Y-61214285D01*
X88928571Y-61261904D01*
X88880952Y-61309523D01*
X88833333Y-61404761D01*
X88833333Y-61595238D01*
X88880952Y-61690476D01*
X88928571Y-61738095D01*
X89023809Y-61785714D01*
G04 #@! TO.C,R7*
X95952380Y-74166666D02*
X95476190Y-74500000D01*
X95952380Y-74738095D02*
X94952380Y-74738095D01*
X94952380Y-74357142D01*
X95000000Y-74261904D01*
X95047619Y-74214285D01*
X95142857Y-74166666D01*
X95285714Y-74166666D01*
X95380952Y-74214285D01*
X95428571Y-74261904D01*
X95476190Y-74357142D01*
X95476190Y-74738095D01*
X94952380Y-73833333D02*
X94952380Y-73166666D01*
X95952380Y-73595238D01*
G04 #@! TO.C,R8*
X113333333Y-72702380D02*
X113000000Y-72226190D01*
X112761904Y-72702380D02*
X112761904Y-71702380D01*
X113142857Y-71702380D01*
X113238095Y-71750000D01*
X113285714Y-71797619D01*
X113333333Y-71892857D01*
X113333333Y-72035714D01*
X113285714Y-72130952D01*
X113238095Y-72178571D01*
X113142857Y-72226190D01*
X112761904Y-72226190D01*
X113904761Y-72130952D02*
X113809523Y-72083333D01*
X113761904Y-72035714D01*
X113714285Y-71940476D01*
X113714285Y-71892857D01*
X113761904Y-71797619D01*
X113809523Y-71750000D01*
X113904761Y-71702380D01*
X114095238Y-71702380D01*
X114190476Y-71750000D01*
X114238095Y-71797619D01*
X114285714Y-71892857D01*
X114285714Y-71940476D01*
X114238095Y-72035714D01*
X114190476Y-72083333D01*
X114095238Y-72130952D01*
X113904761Y-72130952D01*
X113809523Y-72178571D01*
X113761904Y-72226190D01*
X113714285Y-72321428D01*
X113714285Y-72511904D01*
X113761904Y-72607142D01*
X113809523Y-72654761D01*
X113904761Y-72702380D01*
X114095238Y-72702380D01*
X114190476Y-72654761D01*
X114238095Y-72607142D01*
X114285714Y-72511904D01*
X114285714Y-72321428D01*
X114238095Y-72226190D01*
X114190476Y-72178571D01*
X114095238Y-72130952D01*
G04 #@! TO.C,VD1*
X96952380Y-57559523D02*
X97952380Y-57226190D01*
X96952380Y-56892857D01*
X97952380Y-56559523D02*
X96952380Y-56559523D01*
X96952380Y-56321428D01*
X97000000Y-56178571D01*
X97095238Y-56083333D01*
X97190476Y-56035714D01*
X97380952Y-55988095D01*
X97523809Y-55988095D01*
X97714285Y-56035714D01*
X97809523Y-56083333D01*
X97904761Y-56178571D01*
X97952380Y-56321428D01*
X97952380Y-56559523D01*
X97952380Y-55035714D02*
X97952380Y-55607142D01*
X97952380Y-55321428D02*
X96952380Y-55321428D01*
X97095238Y-55416666D01*
X97190476Y-55511904D01*
X97238095Y-55607142D01*
G04 #@! TO.C,VD2*
X96952380Y-61059523D02*
X97952380Y-60726190D01*
X96952380Y-60392857D01*
X97952380Y-60059523D02*
X96952380Y-60059523D01*
X96952380Y-59821428D01*
X97000000Y-59678571D01*
X97095238Y-59583333D01*
X97190476Y-59535714D01*
X97380952Y-59488095D01*
X97523809Y-59488095D01*
X97714285Y-59535714D01*
X97809523Y-59583333D01*
X97904761Y-59678571D01*
X97952380Y-59821428D01*
X97952380Y-60059523D01*
X97047619Y-59107142D02*
X97000000Y-59059523D01*
X96952380Y-58964285D01*
X96952380Y-58726190D01*
X97000000Y-58630952D01*
X97047619Y-58583333D01*
X97142857Y-58535714D01*
X97238095Y-58535714D01*
X97380952Y-58583333D01*
X97952380Y-59154761D01*
X97952380Y-58535714D01*
G04 #@! TO.C,VT1*
X88952380Y-57190476D02*
X89952380Y-56857142D01*
X88952380Y-56523809D01*
X88952380Y-56333333D02*
X88952380Y-55761904D01*
X89952380Y-56047619D02*
X88952380Y-56047619D01*
X89952380Y-54904761D02*
X89952380Y-55476190D01*
X89952380Y-55190476D02*
X88952380Y-55190476D01*
X89095238Y-55285714D01*
X89190476Y-55380952D01*
X89238095Y-55476190D01*
G04 #@! TO.C,VT2*
X89052380Y-66440476D02*
X90052380Y-66107142D01*
X89052380Y-65773809D01*
X89052380Y-65583333D02*
X89052380Y-65011904D01*
X90052380Y-65297619D02*
X89052380Y-65297619D01*
X89147619Y-64726190D02*
X89100000Y-64678571D01*
X89052380Y-64583333D01*
X89052380Y-64345238D01*
X89100000Y-64250000D01*
X89147619Y-64202380D01*
X89242857Y-64154761D01*
X89338095Y-64154761D01*
X89480952Y-64202380D01*
X90052380Y-64773809D01*
X90052380Y-64154761D01*
G04 #@! TD*
M02*
